# xmcd
# 
# Track frame offsets:
#     150
#     13526
#     28080
#     40186
#     56365
#     76715
#     94215
#     109931
#     129698
#     140841
#     151992
#     167102
# 
# Disc length: 2531
# 
# Revision: 9
# Processed by: cddbd v1.5.2PL0 Copyright (c) Steve Scherf et al.
# Submitted via: fre:ac v1.0.31
# 
DISCID=9809e10c
DTITLE=The Butterfield Blues Band - Keep On Moving
DYEAR=1969
DGENRE=Rock
TTITLE0=Love March
TTITLE1=No Amount of Loving
TTITLE2=Moring Sunrise
TTITLE3=Losing Hand
TTITLE4=Walking by Myself
TTITLE5=Except You
TTITLE6=Love Disease
TTITLE7=Where Did My Baby Go
TTITLE8=All in a Day
TTITLE9=So Far So Good
TTITLE10=Buddy's Advice
TTITLE11=Keep On Moving
EXTD=\\t\\t\\t YEAR: 1969
EXTT0=
EXTT1=
EXTT2=
EXTT3=
EXTT4=
EXTT5=
EXTT6=
EXTT7=
EXTT8=
EXTT9=
EXTT10=
EXTT11=
PLAYORDER=
